<mxfile host="65bd71144e" modified="2020-12-20T14:02:50.784Z" agent="5.0 (Macintosh; Intel Mac OS X 10_11_6) AppleWebKit/537.36 (KHTML, like Gecko) Code/1.50.1 Chrome/83.0.4103.122 Electron/9.2.1 Safari/537.36" version="13.10.0" etag="kUCBoKHNg8DfV67y6cNr" type="embed">
    <diagram id="aphePk4Vg7dtFSVWGbOU" name="Page-1">
        <mxGraphModel dx="564" dy="446" grid="1" gridSize="10" guides="1" tooltips="1" connect="1" arrows="1" fold="1" page="1" pageScale="1" pageWidth="827" pageHeight="1169" math="0" shadow="0">
            <root>
                <mxCell id="0"/>
                <mxCell id="1" parent="0"/>
                <mxCell id="2" value="事件源" style="ellipse;whiteSpace=wrap;html=1;aspect=fixed;fillColor=#dae8fc;strokeColor=#6c8ebf;" vertex="1" parent="1">
                    <mxGeometry x="180" y="90" width="60" height="60" as="geometry"/>
                </mxCell>
                <mxCell id="3" value="SOURCE" style="rounded=1;whiteSpace=wrap;html=1;fontSize=16;fillColor=#d80073;strokeColor=#A50040;fontColor=#ffffff;" vertex="1" parent="1">
                    <mxGeometry x="90" y="290" width="120" height="60" as="geometry"/>
                </mxCell>
                <mxCell id="5" value="" style="curved=1;endArrow=classic;html=1;fontSize=16;exitX=0.5;exitY=1;exitDx=0;exitDy=0;entryX=0.5;entryY=0;entryDx=0;entryDy=0;" edge="1" parent="1" source="2" target="3">
                    <mxGeometry width="50" height="50" relative="1" as="geometry">
                        <mxPoint x="270" y="260" as="sourcePoint"/>
                        <mxPoint x="320" y="210" as="targetPoint"/>
                        <Array as="points">
                            <mxPoint x="120" y="190"/>
                            <mxPoint x="120" y="250"/>
                        </Array>
                    </mxGeometry>
                </mxCell>
                <mxCell id="6" value="Receive" style="text;html=1;strokeColor=none;fillColor=none;align=center;verticalAlign=middle;whiteSpace=wrap;rounded=0;fontSize=13;fontStyle=1;fontColor=#CC0066;" vertex="1" parent="1">
                    <mxGeometry x="130" y="210" width="40" height="20" as="geometry"/>
                </mxCell>
                <mxCell id="7" value="EventRead" style="text;html=1;strokeColor=none;fillColor=none;align=center;verticalAlign=middle;whiteSpace=wrap;rounded=0;fontSize=13;fontStyle=1;fontColor=#CC0066;" vertex="1" parent="1">
                    <mxGeometry x="40" y="250" width="100" height="20" as="geometry"/>
                </mxCell>
                <mxCell id="9" value="CHANNEL" style="rounded=1;whiteSpace=wrap;html=1;fontSize=16;fillColor=#008a00;strokeColor=#005700;fontColor=#ffffff;" vertex="1" parent="1">
                    <mxGeometry x="390" y="380" width="120" height="60" as="geometry"/>
                </mxCell>
                <mxCell id="10" value="" style="curved=1;endArrow=classic;html=1;fontSize=13;fontColor=#CC0066;exitX=1;exitY=0.5;exitDx=0;exitDy=0;entryX=0;entryY=0.5;entryDx=0;entryDy=0;" edge="1" parent="1" source="3" target="9">
                    <mxGeometry width="50" height="50" relative="1" as="geometry">
                        <mxPoint x="290" y="350" as="sourcePoint"/>
                        <mxPoint x="340" y="300" as="targetPoint"/>
                        <Array as="points">
                            <mxPoint x="310" y="350"/>
                            <mxPoint x="340" y="350"/>
                            <mxPoint x="360" y="360"/>
                        </Array>
                    </mxGeometry>
                </mxCell>
                <mxCell id="11" value="Accept" style="text;html=1;strokeColor=none;fillColor=none;align=center;verticalAlign=middle;whiteSpace=wrap;rounded=0;fontSize=13;fontStyle=1;fontColor=#CC0066;" vertex="1" parent="1">
                    <mxGeometry x="300" y="322" width="40" height="20" as="geometry"/>
                </mxCell>
                <mxCell id="12" value="EventPut" style="text;html=1;strokeColor=none;fillColor=none;align=center;verticalAlign=middle;whiteSpace=wrap;rounded=0;fontSize=13;fontStyle=1;fontColor=#009900;" vertex="1" parent="1">
                    <mxGeometry x="297" y="380" width="100" height="20" as="geometry"/>
                </mxCell>
                <mxCell id="13" value="SINK" style="rounded=1;whiteSpace=wrap;html=1;fontSize=16;fillColor=#1ba1e2;strokeColor=#006EAF;fontColor=#ffffff;" vertex="1" parent="1">
                    <mxGeometry x="650" y="290" width="120" height="60" as="geometry"/>
                </mxCell>
                <mxCell id="14" value="" style="curved=1;endArrow=classic;html=1;fontSize=13;fontColor=#009900;exitX=1;exitY=0.5;exitDx=0;exitDy=0;entryX=0;entryY=0.5;entryDx=0;entryDy=0;" edge="1" parent="1" source="9" target="13">
                    <mxGeometry width="50" height="50" relative="1" as="geometry">
                        <mxPoint x="450" y="390" as="sourcePoint"/>
                        <mxPoint x="500" y="340" as="targetPoint"/>
                        <Array as="points">
                            <mxPoint x="580" y="420"/>
                            <mxPoint x="610" y="390"/>
                        </Array>
                    </mxGeometry>
                </mxCell>
                <mxCell id="15" value="EventTake" style="text;html=1;strokeColor=none;fillColor=none;align=center;verticalAlign=middle;whiteSpace=wrap;rounded=0;fontSize=13;fontStyle=1;fontColor=#009900;" vertex="1" parent="1">
                    <mxGeometry x="522" y="413" width="100" height="20" as="geometry"/>
                </mxCell>
                <mxCell id="16" value="ChannelRead" style="text;html=1;strokeColor=none;fillColor=none;align=center;verticalAlign=middle;whiteSpace=wrap;rounded=0;fontSize=13;fontStyle=1;fontColor=#1F75CC;" vertex="1" parent="1">
                    <mxGeometry x="520" y="360" width="100" height="20" as="geometry"/>
                </mxCell>
                <mxCell id="17" value="目的地" style="ellipse;shape=cloud;whiteSpace=wrap;html=1;fontSize=13;align=center;fillColor=#cdeb8b;strokeColor=#36393d;" vertex="1" parent="1">
                    <mxGeometry x="480" y="80" width="120" height="80" as="geometry"/>
                </mxCell>
                <mxCell id="18" value="" style="curved=1;endArrow=classic;html=1;fontSize=13;fontColor=#1F75CC;exitX=0.5;exitY=0;exitDx=0;exitDy=0;entryX=0.55;entryY=0.95;entryDx=0;entryDy=0;entryPerimeter=0;" edge="1" parent="1" source="13" target="17">
                    <mxGeometry width="50" height="50" relative="1" as="geometry">
                        <mxPoint x="490" y="270" as="sourcePoint"/>
                        <mxPoint x="540" y="220" as="targetPoint"/>
                        <Array as="points">
                            <mxPoint x="590" y="260"/>
                            <mxPoint x="660" y="200"/>
                        </Array>
                    </mxGeometry>
                </mxCell>
                <mxCell id="19" value="EventWrite" style="text;html=1;strokeColor=none;fillColor=none;align=center;verticalAlign=middle;whiteSpace=wrap;rounded=0;fontSize=13;fontStyle=1;fontColor=#1F75CC;" vertex="1" parent="1">
                    <mxGeometry x="540" y="200" width="100" height="20" as="geometry"/>
                </mxCell>
                <mxCell id="20" value="Drain" style="text;html=1;strokeColor=none;fillColor=none;align=center;verticalAlign=middle;whiteSpace=wrap;rounded=0;fontSize=13;fontStyle=1;fontColor=#1F75CC;" vertex="1" parent="1">
                    <mxGeometry x="600" y="240" width="100" height="20" as="geometry"/>
                </mxCell>
                <mxCell id="21" value="ChannelWrite" style="text;html=1;strokeColor=none;fillColor=none;align=center;verticalAlign=middle;whiteSpace=wrap;rounded=0;fontSize=13;fontStyle=1;fontColor=#CC0066;" vertex="1" parent="1">
                    <mxGeometry x="270" y="350" width="40" height="20" as="geometry"/>
                </mxCell>
                <mxCell id="22" value="&lt;font color=&quot;#000000&quot;&gt;AppendReceivedCount&lt;br&gt;AppendAcceptedCount&lt;br&gt;AppendBatchReceivedCount&lt;br&gt;AppendBatchAcceptedCount&lt;br&gt;EventReadFail&lt;br&gt;ChannelWriteFail&lt;br&gt;EventReceivedCount&lt;br&gt;EventAcceptedCount&lt;br&gt;&lt;/font&gt;" style="text;html=1;strokeColor=none;fillColor=none;align=center;verticalAlign=middle;whiteSpace=wrap;rounded=0;fontSize=13;fontColor=#1F75CC;fontStyle=1" vertex="1" parent="1">
                    <mxGeometry x="55" y="360" width="190" height="140" as="geometry"/>
                </mxCell>
                <mxCell id="23" value="&lt;font color=&quot;#000000&quot;&gt;ChannelCapacity&lt;br&gt;ChannelSize&lt;br&gt;EventPutAttemptCount&lt;br&gt;EventPutErrorCount&lt;br&gt;EventPutSuccessCount&lt;br&gt;EventTakeAttemptCount&lt;br&gt;EventTakeErrorCount&lt;br&gt;EventTakeSuccessCount&lt;br&gt;&lt;/font&gt;" style="text;html=1;strokeColor=none;fillColor=none;align=center;verticalAlign=middle;whiteSpace=wrap;rounded=0;fontSize=13;fontColor=#1F75CC;fontStyle=1" vertex="1" parent="1">
                    <mxGeometry x="355" y="445" width="190" height="140" as="geometry"/>
                </mxCell>
                <mxCell id="24" value="&lt;font color=&quot;#000000&quot;&gt;ChannelReadFail&lt;br&gt;EventWriteFail&lt;br&gt;EventDrainAttemptCount&lt;br&gt;EventDrainSuccessCount&lt;br&gt;BatchCompleteCount&lt;br&gt;BatchEmptyCount&lt;br&gt;BatchUnderflowCount&lt;br&gt;ConnectionClosedCount&lt;br&gt;ConnectionCreatedCount&lt;br&gt;ConnectionFailedCount&lt;br&gt;&lt;/font&gt;" style="text;html=1;strokeColor=none;fillColor=none;align=center;verticalAlign=middle;whiteSpace=wrap;rounded=0;fontSize=13;fontColor=#1F75CC;fontStyle=1" vertex="1" parent="1">
                    <mxGeometry x="615" y="360" width="190" height="170" as="geometry"/>
                </mxCell>
            </root>
        </mxGraphModel>
    </diagram>
</mxfile>